<?xml version="1.0" standalone="no"?><!DOCTYPE svg PUBLIC "-//W3C//DTD SVG 1.1//EN" "http://www.w3.org/Graphics/SVG/1.1/DTD/svg11.dtd"><svg t="1603087282954" class="icon" viewBox="0 0 1024 1024" version="1.1" xmlns="http://www.w3.org/2000/svg" p-id="3622" xmlns:xlink="http://www.w3.org/1999/xlink" width="1024" height="1024"><defs><style type="text/css"></style></defs><path d="M773.312 864c-104.512 0-186.688-74.432-186.688-169.216 0-94.784 82.112-169.216 186.688-169.216S960 600 960 694.784C960 789.568 877.888 864 773.312 864zM773.312 576.32c-70.912 0-130.688 54.144-130.688 118.464s59.712 118.464 130.688 118.464 130.688-54.144 130.688-118.464S844.288 576.32 773.312 576.32zM553.088 373.248 467.2 451.072l82.112 57.536 0 219.968-67.2 0L482.112 559.36 355.2 491.712C336.512 481.536 325.312 461.248 325.312 440.96c0-16.96 7.488-30.464 18.688-40.64l138.112-125.248c11.2-10.176 26.112-16.896 44.8-16.896 26.112 0 44.8 10.176 56 27.072l70.912 111.68 119.488 0 0 60.928-156.8 0L553.088 373.248zM661.312 281.856c-37.312 0-67.2-27.072-67.2-60.928 0-33.856 29.888-60.928 67.2-60.928 37.312 0 67.2 27.072 67.2 60.928C728.512 254.784 698.688 281.856 661.312 281.856zM437.312 694.784c0 94.784-82.112 169.216-186.688 169.216C146.112 864 64 789.568 64 694.784c0-94.784 82.112-169.216 186.688-169.216C355.2 525.568 437.312 600 437.312 694.784zM250.688 576.32c-70.912 0-130.688 54.144-130.688 118.464s59.712 118.464 130.688 118.464c70.912 0 130.688-54.144 130.688-118.464S321.6 576.32 250.688 576.32z" p-id="3623"></path></svg>